<svg width="91" height="30" viewBox="0 0 91 30" fill="none" xmlns="http://www.w3.org/2000/svg"><g clip-path="url(#a)"><path d="M0 19.04a10.323 10.323 0 0 0 9.498 6.277A10.32 10.32 0 0 0 0 19.04ZM9.5 25.32a7.74 7.74 0 0 0 7.049-4.539 7.742 7.742 0 0 0-7.049 4.54Z" fill="#12B36A"/><path fill-rule="evenodd" clip-rule="evenodd" d="M9.497 20.158a7.74 7.74 0 1 0-.001-15.477 7.74 7.74 0 0 0 .001 15.477Zm0-3.869a3.87 3.87 0 1 0 0-7.74 3.87 3.87 0 0 0 0 7.74Z" fill="#FEBE10"/><path d="M9.497 16.29a3.87 3.87 0 1 0 0-7.74 3.87 3.87 0 0 0 0 7.74ZM59.294 12.421h3.238V24.97h-3.238v-4.887h-5.652v4.887h-3.237V12.421h3.237v4.625h5.652V12.42Zm4.762 3.113h4.03v9.435h3.238v-9.435h3.982V12.42h-11.25v3.113Zm26.947 6.706v2.667c-.552.276-1.242.414-2.047.414-1.681 0-2.528-.732-2.867-1.91l-.054.079c-.98 1.229-2.334 1.831-4.09 1.831-1.683 0-3.114-.627-4.318-1.907-1.18-1.28-1.781-2.861-1.781-4.719 0-1.855.602-3.412 1.781-4.692 1.204-1.279 2.635-1.933 4.317-1.933 1.679 0 2.99.553 3.958 1.677v-1.325h3.238v8.876c0 .759.345 1.149 1.035 1.149.323 0 .598-.07.828-.207Zm-4.968-3.545c0-1.028-.326-1.881-1.004-2.534-.652-.677-1.48-1.004-2.485-1.004-1.004 0-1.831.326-2.484 1.004-.653.653-.979 1.506-.979 2.534 0 1.03.326 1.883.979 2.56.653.653 1.48.979 2.484.979s1.833-.326 2.485-.979c.678-.677 1.004-1.53 1.004-2.56Zm-62.3-6.274-.097 4.715c-.022 1.909-.092 2.852-.368 3.931-.253 1.035-.736 1.328-1.493 1.328-.254 0-.483-.024-.668-.093v2.667c.253.138.668.206 1.22.206 2.275-.068 3.379-1.142 3.931-3.073.39-1.38.46-2.438.53-4.024l.072-2.545h4.02v9.435h3.237V12.421H23.735Zm15.591 7.121c.349 2.142 2.047 2.843 3.77 2.843 1.14 0 2.337-.446 3.073-1.113l1.997 2.008c-1.193 1.32-2.853 2.041-5.121 2.041-3.176 0-7.008-1.875-7.008-6.626 0-4.75 3.69-6.625 6.823-6.625 3.964 0 5.604 1.862 5.604 3.95 0 3.413-4.337 4.99-9.138 3.522Zm5.623-3.152c0-.974-.962-1.409-2.041-1.409-1.648 0-3.076.696-3.51 2.487 3.358.97 5.551.246 5.551-1.078Z" fill="#003C96"/></g><defs><clipPath id="a"><path fill="#fff" d="M0 0h91.003v30H0z"/></clipPath></defs></svg>