<svg width="328" height="54" viewBox="0 0 328 54" fill="none" xmlns="http://www.w3.org/2000/svg">
<path d="M8.08624 45.0934L12.322 53.7445L16.5576 45.0934L12.322 41.0456L8.08624 45.0934Z" fill="#F24C36"/>
<path d="M12.322 4.4882C11.4418 4.96797 0 10.9651 0 20.6404C0 28.8765 6.72107 41.4304 6.72107 41.4304L12.322 35.8331L17.9228 41.4304C17.9228 41.4304 24.644 28.8765 24.644 20.6404C24.644 10.9651 13.2021 4.88801 12.322 4.4882ZM16.0026 32.0749L12.322 28.3967L8.64138 32.0749C8.48135 31.5951 6.00096 24.8784 6.00096 20.4805C6.00096 14.5633 11.9219 11.285 12.322 11.0451C12.802 11.285 18.643 14.5633 18.643 20.4805C18.643 24.8784 16.1626 31.5951 16.0026 32.0749Z" fill="#F34C36"/>
<path d="M24.6602 0.255352L20.4285 4.48427L24.6602 8.71319L28.8918 4.48427L24.6602 0.255352Z" fill="#F34C36"/>
<path d="M15.4025 20.2658C15.4025 21.7623 14.119 22.9595 12.5145 22.9595C10.9101 22.9595 9.62653 21.7623 9.62653 20.2658C9.62653 18.7694 10.9101 17.5721 12.5145 17.5721C14.119 17.5721 15.4025 18.7694 15.4025 20.2658Z" fill="#F34C36"/>
<path d="M117.647 10.3864C116.785 10.676 115.253 11.0621 113.816 11.3517C112.476 11.6415 110.655 11.9311 108.835 12.5103C105.962 13.5723 104.43 16.5651 104.239 20.3303C104.239 20.5234 104.143 20.813 104.047 21.1027H104.239C105.388 18.6891 108.452 17.0479 111.326 17.0479C116.402 17.0479 119.754 20.5234 119.754 25.7368C119.754 30.2743 116.211 34.9084 110.464 34.9084C104.143 34.9084 100.887 29.6951 100.887 23.0336C100.887 15.6963 102.897 11.738 107.495 9.80706C108.835 9.22782 109.985 9.03473 111.038 8.84165C113.529 8.35893 115.061 7.97276 116.689 7.58658L117.647 10.3864ZM110.368 31.9155C113.625 31.9155 116.211 29.4055 116.211 25.9299C116.211 22.1646 114.007 19.9442 110.464 19.9442C108.069 19.9442 105.196 21.875 104.334 24.2886C104.239 28.3435 106.537 31.9155 110.368 31.9155Z" fill="#ffffff"/>
<path d="M125.091 34.1387H122.064V16.822H125.469V28.1114C125.469 28.494 125.375 28.8767 125.28 29.1637C125.375 29.1637 125.469 29.1637 125.469 29.1637L135.211 16.822H138.237V34.1387H134.833V22.8494C134.833 22.4667 134.926 21.9883 135.021 21.7013H134.833L125.091 34.1387Z" fill="#ffffff"/>
<path d="M140.547 32.5159L141.895 30.0275C143.243 31.176 145.457 31.9417 147.286 31.9417C149.886 31.9417 151.618 30.7932 151.618 29.0705C151.618 27.6349 150.56 26.9649 148.441 26.9649H145.457V24.1895H148.248C149.981 24.1895 151.04 23.2325 151.04 21.7969C151.04 20.2656 149.789 19.3085 147.575 19.3085C145.938 19.3085 143.917 19.8828 142.377 21.127L141.029 18.6386C143.146 17.0116 145.65 16.4374 148.056 16.4374C152.196 16.4374 154.603 18.2558 154.603 21.2227C154.603 23.2325 153.64 24.5724 151.522 25.3379V25.4337C153.832 25.7208 155.18 27.3478 155.18 29.549C155.18 32.7072 152.003 34.9085 147.768 34.9085C144.687 34.8128 142.088 33.8557 140.547 32.5159Z" fill="#ffffff"/>
<path d="M170.218 34.1387V26.6763H160.935V34.1387H157.49V16.822H160.935V23.9974H170.218V16.822H173.663V34.1387H170.218Z" fill="#ffffff"/>
<path d="M192.819 26.8274C192.819 26.4426 192.916 26.154 192.916 25.7692C192.916 20.4779 190.317 16.4374 184.444 16.4374C179.342 16.4374 175.973 20.4779 175.973 25.7692C175.973 30.9642 179.342 34.9085 185.407 34.9085C188.391 34.9085 190.894 34.0426 192.627 32.5034L191.279 30.0021C189.932 30.9642 187.91 31.9262 185.504 31.9262C181.653 31.9262 179.824 29.9059 179.535 26.8274H192.819ZM184.541 19.3235C187.717 19.3235 189.161 21.44 189.45 24.1336H179.535C180.016 21.44 181.941 19.3235 184.541 19.3235Z" fill="#ffffff"/>
<path d="M204.4 19.4517C206.103 19.4517 207.9 19.9228 209.886 21.1473C209.886 21.1473 210.737 19.546 211.304 18.6039C209.223 17.1909 206.859 16.4374 204.4 16.4374C198.915 16.4374 195.226 20.2995 195.226 25.4805C195.226 30.5673 198.915 34.5237 204.495 34.5237C207.237 34.5237 209.601 33.7701 211.399 32.2629L210.075 29.8137C208.751 30.7557 206.859 31.5093 204.778 31.5093C201.279 31.5093 198.725 28.8717 198.725 25.1979C198.537 22.2777 200.618 19.4517 204.4 19.4517Z" fill="#ffffff"/>
<path d="M90.0454 9.51073C90.0454 10.7613 89.4721 11.4347 88.5164 11.4347C87.5608 11.4347 86.9874 10.6651 86.9874 9.51073H82.0181C82.1137 13.1664 84.3117 15.6678 88.612 15.6678C92.6256 15.6678 94.9191 13.0702 95.1105 9.51073H90.0454Z" fill="#ffffff"/>
<path d="M79.3228 34.1387V16.822H85.1007C85.1007 16.822 85.1007 24.2845 85.1007 24.8585C85.1007 25.4325 85.006 26.1023 85.006 26.1023H85.2902L91.5417 16.822H97.0359V34.1387H91.2576V26.0066C91.2576 25.4325 91.3523 24.8585 91.3523 24.8585H91.0682L84.8166 34.1387H79.3228Z" fill="#ffffff"/>
<path d="M67.3858 16.4374C72.9692 16.4374 77.0123 20.3402 77.0123 25.4805C77.0123 30.6208 72.8729 34.5237 67.3858 34.5237C61.8986 34.5237 57.7593 30.6208 57.7593 25.4805C57.7593 20.3402 61.8986 16.4374 67.3858 16.4374ZM67.3858 29.193C69.5036 29.193 70.9476 27.5748 70.9476 25.4805C70.9476 23.3864 69.5036 21.7681 67.3858 21.7681C65.3642 21.7681 63.824 23.3864 63.824 25.4805C63.9202 27.4796 65.3642 29.193 67.3858 29.193Z" fill="#ffffff"/>
<path d="M50.7759 16.822C50.7759 16.822 45.9123 23.1364 45.7216 23.3277C45.5309 23.6148 45.4355 23.8061 45.4355 23.8061H45.1494C45.1494 23.8061 45.054 23.6148 44.8633 23.3277C44.4818 22.9451 39.5228 16.822 39.5228 16.822H35.0406V34.1387H40.5718V26.8677C40.5718 26.1023 40.4764 25.6239 40.4764 25.6239H40.7625L45.2448 30.7901H45.5309L49.7269 25.6239H50.013C50.013 25.6239 49.9176 26.1023 49.9176 26.8677V34.1387H55.4489V16.822H50.7759Z" fill="#ffffff"/>
<path d="M39.2763 49.5116H38.7088L38.5703 48.1103H35.0406V42.5849H35.8712V47.3966H37.7813V42.5849H38.6119V47.3966H39.2763V49.5116Z" fill="#ffffff"/>
<path d="M43.3873 47.8552C43.2073 48.0137 42.9718 48.1457 42.6809 48.225C42.39 48.3174 42.0992 48.3571 41.7806 48.3571C41.4204 48.3571 41.1019 48.2911 40.8387 48.1589C40.5755 48.0268 40.354 47.8287 40.1739 47.5778C40.0077 47.3268 39.8692 47.023 39.786 46.6663C39.7029 46.3097 39.6614 45.9135 39.6614 45.4776C39.6614 44.5398 39.8414 43.8132 40.2015 43.3246C40.5617 42.8358 41.0741 42.5849 41.7391 42.5849C41.9607 42.5849 42.1684 42.6113 42.3762 42.6641C42.584 42.7169 42.7779 42.8227 42.9441 42.9812C43.1103 43.1397 43.2488 43.351 43.3596 43.6283C43.4566 43.9057 43.512 44.2755 43.512 44.7247C43.512 44.8568 43.512 44.9888 43.4981 45.1341C43.4981 45.2795 43.4704 45.4247 43.4566 45.5832H40.5202C40.5202 45.9003 40.5478 46.1908 40.6033 46.4418C40.6587 46.706 40.7418 46.9173 40.8526 47.1022C40.9633 47.2871 41.1158 47.4193 41.2958 47.5249C41.4759 47.6306 41.6974 47.6703 41.9745 47.6703C42.1822 47.6703 42.39 47.6306 42.5978 47.5645C42.8055 47.4985 42.958 47.406 43.0688 47.3004L43.3735 47.8815L43.3873 47.8552ZM42.7363 44.8964C42.7502 44.3416 42.667 43.9454 42.487 43.6812C42.3069 43.417 42.0714 43.2981 41.7529 43.2981C41.3928 43.2981 41.1158 43.4302 40.908 43.6812C40.7002 43.9321 40.5755 44.3416 40.534 44.8964H42.7225H42.7363Z" fill="#ffffff"/>
<path d="M47.3451 45.7886H45.4548V48.3571H44.6672V42.5849H45.4548V45.0291H47.3451V42.5849H48.1327V48.3571H47.3451V45.7886Z" fill="#ffffff"/>
<path d="M52.7535 43.3305H51.2568V48.3571H50.385V43.3305H48.9028V42.5849H52.7535V43.3305Z" fill="#ffffff"/>
<path d="M53.5236 42.7209H54.1066L54.2286 43.3331H54.2693C54.554 42.8298 54.9879 42.5849 55.5845 42.5849C56.181 42.5849 56.6285 42.8026 56.9268 43.2514C57.225 43.7004 57.3741 44.4351 57.3741 45.4419C57.3741 45.918 57.3199 46.3533 57.225 46.7343C57.1301 47.1152 56.981 47.4417 56.8047 47.7137C56.6285 47.9858 56.398 48.19 56.1404 48.326C55.8828 48.4621 55.598 48.5301 55.2726 48.5301C55.0557 48.5301 54.8794 48.5301 54.7573 48.4893C54.6353 48.4484 54.4862 48.4076 54.3371 48.326V50.6659H53.5236V42.7073V42.7209ZM54.3371 47.5097C54.4456 47.605 54.5676 47.673 54.6896 47.7274C54.8252 47.7818 55.0015 47.809 55.2184 47.809C55.6251 47.809 55.937 47.605 56.1675 47.1968C56.398 46.7886 56.52 46.2036 56.52 45.4419C56.52 45.1289 56.5065 44.8432 56.4522 44.5848C56.4116 44.3262 56.3438 44.1085 56.2488 43.9181C56.1539 43.7277 56.0455 43.5916 55.8963 43.4828C55.7607 43.3739 55.5845 43.3331 55.3811 43.3331C54.8252 43.3331 54.4727 43.6732 54.31 44.3399V47.5097H54.3371Z" fill="#ffffff"/>
<path d="M60.4547 45.4709C60.4547 44.4825 60.6221 43.7577 60.957 43.2833C61.2918 42.8221 61.7683 42.5849 62.3864 42.5849C63.0432 42.5849 63.5326 42.8221 63.8417 43.2965C64.1507 43.7709 64.3053 44.4957 64.3053 45.4709C64.3053 46.4462 64.1379 47.1973 63.8031 47.6586C63.4682 48.1199 62.9917 48.3571 62.3864 48.3571C61.7297 48.3571 61.2402 48.1199 60.9312 47.6454C60.6221 47.171 60.4675 46.4462 60.4675 45.4709M61.2789 45.4709C61.2789 45.8004 61.2918 46.0903 61.3433 46.3539C61.382 46.6175 61.4463 46.8415 61.5365 47.0392C61.6266 47.2238 61.7425 47.3819 61.8842 47.4873C62.0258 47.5928 62.2061 47.6454 62.3993 47.6454C62.7727 47.6454 63.0561 47.4741 63.2364 47.1315C63.4167 46.7888 63.5197 46.2354 63.5197 45.4709C63.5197 45.1547 63.5068 44.8647 63.4554 44.6012C63.4167 44.3376 63.3523 44.1004 63.2622 43.9159C63.172 43.7314 63.0561 43.5733 62.9145 43.4678C62.7727 43.3624 62.5925 43.3097 62.3993 43.3097C62.0387 43.3097 61.7554 43.481 61.5623 43.8237C61.3691 44.1663 61.2789 44.7198 61.2789 45.4709Z" fill="#ffffff"/>
<path d="M66.6329 45.7609H66.2336V48.3571H65.4606V42.5849H66.2336V45.1948L66.6071 45.0291L67.9212 42.5849H68.7457L67.4574 44.9048L67.0838 45.2914L67.5476 45.7472L68.9261 48.3571H67.9985L66.6329 45.7609Z" fill="#ffffff"/>
<path d="M69.626 43.0135C69.855 42.8795 70.1414 42.7724 70.4706 42.692C70.7998 42.625 71.1434 42.5849 71.5156 42.5849C71.8591 42.5849 72.1168 42.6384 72.3172 42.7188C72.5176 42.8125 72.675 42.9465 72.7895 43.1072C72.9041 43.2679 72.9756 43.4554 73.0186 43.6563C73.0615 43.8572 73.0758 44.0715 73.0758 44.2991C73.0758 44.7411 73.0758 45.183 73.0472 45.6116C73.0329 46.0401 73.0186 46.4419 73.0186 46.817C73.0186 47.0981 73.0186 47.3661 73.0472 47.6071C73.0758 47.8482 73.1045 48.0758 73.1617 48.2901H72.4889L72.2742 47.6339H72.2313C72.1168 47.8214 71.945 47.9955 71.716 48.1428C71.4869 48.2901 71.172 48.3571 70.7855 48.3571C70.3561 48.3571 70.0125 48.2098 69.7262 47.9419C69.4542 47.6607 69.311 47.2723 69.311 46.7768C69.311 46.4553 69.3683 46.1874 69.4828 45.9732C69.5973 45.7589 69.7548 45.5848 69.9695 45.4509C70.1843 45.317 70.4277 45.2232 70.7139 45.1697C71.0002 45.1161 71.3295 45.0892 71.6873 45.0892H71.9307C72.0166 45.0892 72.0881 45.0892 72.174 45.0892C72.2027 44.8616 72.2026 44.6473 72.2026 44.4733C72.2026 44.0447 72.1311 43.75 72.0022 43.5759C71.8734 43.4018 71.6158 43.3215 71.2722 43.3215C71.0432 43.3215 70.8141 43.3483 70.5422 43.4152C70.2845 43.4821 70.0698 43.5626 69.8836 43.6563L69.5973 43.0135H69.626ZM72.2026 45.7188C72.1168 45.7188 72.0452 45.7188 71.9593 45.7053C71.8734 45.7053 71.8018 45.7053 71.716 45.7053C71.5299 45.7053 71.3438 45.7188 71.1577 45.7455C70.9716 45.7723 70.8141 45.8259 70.671 45.9063C70.5279 45.9866 70.4133 46.0804 70.3275 46.2142C70.2416 46.3482 70.1986 46.4955 70.1986 46.6964C70.1986 46.991 70.2702 47.2321 70.4277 47.3928C70.5851 47.5535 70.7855 47.6339 71.0289 47.6339C71.3581 47.6339 71.6158 47.5535 71.8018 47.4062C71.9879 47.2589 72.1168 47.0981 72.1883 46.9107V45.7188H72.2026Z" fill="#ffffff"/>
<path d="M74.7802 45.7407V45.0664H75.4417C75.5568 45.0664 75.6575 45.0394 75.7725 44.999C75.8876 44.945 75.9738 44.8911 76.0601 44.7966C76.1464 44.7157 76.2183 44.6213 76.2614 44.5134C76.3189 44.4055 76.3333 44.2842 76.3333 44.1628C76.3333 43.8661 76.247 43.6503 76.0888 43.5155C75.9307 43.3806 75.6718 43.3131 75.3411 43.3131C75.0967 43.3131 74.8666 43.3536 74.6652 43.421C74.4639 43.4885 74.3058 43.5559 74.1907 43.6368L73.9319 42.9895C74.1331 42.868 74.3632 42.7737 74.6365 42.6928C74.9097 42.6253 75.2117 42.5849 75.5568 42.5849C76.0888 42.5849 76.4915 42.7062 76.779 42.922C77.0667 43.1513 77.2105 43.4885 77.2105 43.947C77.2105 44.2302 77.1386 44.5 76.9804 44.7292C76.8223 44.972 76.6209 45.1338 76.362 45.2417V45.2821C76.7359 45.363 76.9948 45.5249 77.1529 45.7542C77.3111 45.9835 77.3974 46.2936 77.3974 46.6847C77.3974 47.1568 77.2249 47.5614 76.8941 47.8716C76.5634 48.1953 76.0457 48.3571 75.3411 48.3571C75.0247 48.3571 74.7515 48.3301 74.5358 48.2762C74.3201 48.2222 74.1188 48.1413 73.9462 48.0604L74.1763 47.359C74.3345 47.4535 74.507 47.5209 74.7228 47.5614C74.9385 47.6019 75.1541 47.6288 75.3699 47.6288C75.7581 47.6288 76.0601 47.5479 76.247 47.3726C76.4484 47.1972 76.549 46.941 76.549 46.6173C76.549 46.3476 76.4627 46.1318 76.2758 45.97C76.0888 45.8081 75.7869 45.7272 75.3555 45.7272H74.809L74.7802 45.7407Z" fill="#ffffff"/>
<path d="M78.451 43.0135C78.6571 42.8795 78.9147 42.7724 79.2111 42.692C79.5074 42.625 79.8166 42.5849 80.1516 42.5849C80.4608 42.5849 80.6927 42.6384 80.873 42.7188C81.0534 42.8125 81.1951 42.9465 81.2981 43.1072C81.4012 43.2679 81.4656 43.4554 81.5043 43.6563C81.5429 43.8572 81.5558 44.0715 81.5558 44.2991C81.5558 44.7411 81.5558 45.183 81.53 45.6116C81.5171 46.0401 81.5043 46.4419 81.5043 46.817C81.5043 47.0981 81.5043 47.3661 81.53 47.6071C81.5558 47.8482 81.5816 48.0758 81.6332 48.2901H81.0276L80.8344 47.6339H80.7957C80.6927 47.8214 80.5381 47.9955 80.332 48.1428C80.1258 48.2901 79.8423 48.3571 79.4945 48.3571C79.108 48.3571 78.7988 48.2098 78.5411 47.9419C78.2964 47.6607 78.1675 47.2723 78.1675 46.7768C78.1675 46.4553 78.2191 46.1874 78.3222 45.9732C78.4252 45.7589 78.5669 45.5848 78.7602 45.4509C78.9534 45.317 79.1724 45.2232 79.4301 45.1697C79.6877 45.1161 79.9841 45.0892 80.3062 45.0892H80.5252C80.6024 45.0892 80.6669 45.0892 80.7441 45.0892C80.7699 44.8616 80.7699 44.6473 80.7699 44.4733C80.7699 44.0447 80.7056 43.75 80.5896 43.5759C80.4736 43.4018 80.2417 43.3215 79.9326 43.3215C79.7264 43.3215 79.5203 43.3483 79.2755 43.4152C79.0436 43.4821 78.8504 43.5626 78.6829 43.6563L78.4252 43.0135H78.451ZM80.7699 45.7188C80.6927 45.7188 80.6282 45.7188 80.5509 45.7053C80.4736 45.7053 80.4092 45.7053 80.332 45.7053C80.1645 45.7053 79.9969 45.7188 79.8294 45.7455C79.662 45.7723 79.5203 45.8259 79.3915 45.9063C79.2626 45.9866 79.1596 46.0804 79.0822 46.2142C79.005 46.3482 78.9663 46.4955 78.9663 46.6964C78.9663 46.991 79.0308 47.2321 79.1724 47.3928C79.3141 47.5535 79.4945 47.6339 79.7135 47.6339C80.0098 47.6339 80.2417 47.5535 80.4092 47.4062C80.5767 47.2589 80.6927 47.0981 80.757 46.9107V45.7188H80.7699Z" fill="#ffffff"/>
<path d="M85.8411 45.7886H83.958V48.3571H83.1733V42.5849H83.958V45.0291H85.8411V42.5849H86.6389V48.3571H85.8411V45.7886Z" fill="#ffffff"/>
<path d="M90.7826 45.0291L90.8544 44.1591H90.8114L90.3803 45.1257L88.3544 48.3571H87.7941V42.5849H88.6562V46.0095L88.5843 46.8519H88.6274L89.0298 45.9129L91.0843 42.5849H91.6447V48.3571H90.7826V45.0291Z" fill="#ffffff"/>
<path d="M95.3854 46.0239L94.6502 46.1588L93.4387 48.3571H92.4147L93.5397 46.415L93.929 46.0105C93.5973 45.9565 93.3234 45.7947 93.0926 45.5384C92.8618 45.2821 92.7464 44.9315 92.7464 44.5C92.7464 43.8256 92.9339 43.3401 93.3234 43.0299C93.7127 42.7332 94.2463 42.5849 94.9237 42.5849C95.1693 42.5849 95.4148 42.5983 95.6309 42.6388C95.8471 42.6792 96.0632 42.7062 96.2651 42.7601V48.3571H95.3996V46.0239H95.3854ZM95.3854 45.4979V43.4076C95.2991 43.3671 95.2129 43.3401 95.1114 43.3266C95.011 43.3131 94.9095 43.2997 94.8375 43.2997C94.4482 43.2997 94.1598 43.394 93.9579 43.5828C93.756 43.7716 93.6551 44.0549 93.6551 44.446C93.6551 44.7966 93.7704 45.0529 94.0012 45.2552C94.2319 45.444 94.5492 45.5384 94.9237 45.5249L95.3996 45.4979H95.3854Z" fill="#ffffff"/>
<path d="M100.996 46.3104L101.231 47.4199H101.287L101.467 46.3104L102.352 42.6123H103.197L101.826 47.7485C101.715 48.1595 101.605 48.543 101.494 48.8991C101.383 49.2552 101.272 49.5702 101.148 49.8304C101.023 50.0907 100.871 50.2962 100.719 50.4468C100.566 50.5975 100.373 50.6659 100.165 50.6659C99.9575 50.6659 99.7641 50.6385 99.5973 50.5564L99.7357 49.7757C99.8466 49.8168 99.9575 49.8168 100.054 49.8031C100.165 49.7757 100.262 49.7209 100.358 49.6113C100.456 49.5017 100.539 49.3511 100.622 49.1319C100.705 48.9265 100.774 48.6526 100.83 48.3101L98.9612 42.5849H99.9158L101.01 46.283L100.996 46.3104Z" fill="#ffffff"/>
<path d="M106.662 47.9476C106.468 48.0929 106.246 48.1853 105.997 48.2514C105.747 48.3174 105.498 48.3571 105.221 48.3571C104.846 48.3571 104.541 48.2911 104.277 48.1589C104.028 48.0268 103.821 47.8287 103.654 47.5778C103.488 47.3268 103.377 47.023 103.308 46.6663C103.238 46.3097 103.197 45.9135 103.197 45.4776C103.197 44.5398 103.377 43.8132 103.723 43.3246C104.07 42.8358 104.583 42.5849 105.234 42.5849C105.539 42.5849 105.789 42.6113 106.01 42.6641C106.232 42.7169 106.412 42.783 106.565 42.8623L106.33 43.5623C106.025 43.3906 105.678 43.3113 105.317 43.3113C104.901 43.3113 104.583 43.4831 104.375 43.8397C104.167 44.1831 104.056 44.7379 104.056 45.4907C104.056 45.7946 104.084 46.0719 104.125 46.3362C104.167 46.6003 104.25 46.8381 104.361 47.023C104.472 47.2211 104.61 47.3664 104.777 47.4853C104.943 47.6042 105.152 47.657 105.414 47.657C105.608 47.657 105.803 47.6306 105.969 47.5514C106.149 47.4853 106.288 47.406 106.399 47.3136L106.648 47.9476H106.662Z" fill="#ffffff"/>
<path d="M110.435 43.3252H109.129C109.101 43.9696 109.071 44.6003 109.029 45.2173C108.985 45.8206 108.914 46.3553 108.814 46.8215C108.713 47.2876 108.569 47.6578 108.382 47.9457C108.195 48.22 107.952 48.3571 107.65 48.3571C107.506 48.3571 107.392 48.3571 107.305 48.3296C107.205 48.3296 107.119 48.2885 107.047 48.2474L107.176 47.5344C107.349 47.5755 107.492 47.5755 107.622 47.507C107.751 47.4384 107.866 47.2465 107.966 46.9175C108.067 46.5884 108.139 46.0811 108.195 45.3955C108.253 44.71 108.296 43.7777 108.325 42.5849H111.283V48.316H110.421V43.3252H110.435Z" fill="#ffffff"/>
<path d="M114.095 46.3104L114.33 47.4199H114.385L114.564 46.3104L115.447 42.6123H116.288L114.922 47.7485C114.812 48.1595 114.702 48.543 114.591 48.8991C114.481 49.2552 114.371 49.5702 114.233 49.8304C114.109 50.0907 113.97 50.2962 113.806 50.4468C113.653 50.5975 113.46 50.6659 113.253 50.6659C113.046 50.6659 112.853 50.6385 112.688 50.5564L112.825 49.7757C112.936 49.8168 113.046 49.8168 113.143 49.8031C113.253 49.7757 113.35 49.7209 113.446 49.6113C113.543 49.5017 113.625 49.3511 113.709 49.1319C113.791 48.9265 113.861 48.6526 113.916 48.3101L112.053 42.5849H113.005L114.095 46.283V46.3104Z" fill="#ffffff"/>
<path d="M119.754 43.3305H117.885V48.3571H117.059V42.5849H119.754V43.3305Z" fill="#ffffff"/>
<path d="M227.04 10.8947V43.1053" stroke="#ffffff"/>
<path d="M251.003 22V31.2842H249.702V23.1539H244.314V31.2842H243V22H251.003ZM260.045 27.8093C260.045 27.9066 260.036 28.0347 260.018 28.1939H254.311C254.391 28.8128 254.661 29.3125 255.121 29.6926C255.59 30.064 256.169 30.2497 256.859 30.2497C257.7 30.2497 258.377 29.9667 258.89 29.4008L259.593 30.2232C259.275 30.5945 258.877 30.8775 258.399 31.072C257.93 31.2665 257.404 31.3638 256.82 31.3638C256.076 31.3638 255.418 31.2134 254.842 30.9128C254.267 30.6033 253.82 30.1746 253.502 29.6263C253.192 29.0781 253.037 28.4592 253.037 27.7695C253.037 27.0886 253.188 26.4741 253.488 25.9259C253.798 25.3777 254.218 24.9532 254.749 24.6526C255.289 24.3431 255.895 24.1884 256.567 24.1884C257.24 24.1884 257.837 24.3431 258.359 24.6526C258.89 24.9532 259.301 25.3777 259.593 25.9259C259.894 26.4741 260.045 27.1019 260.045 27.8093ZM256.567 25.2627C255.957 25.2627 255.444 25.4484 255.028 25.8198C254.621 26.1912 254.382 26.6774 254.311 27.2787H258.824C258.753 26.6863 258.51 26.2044 258.094 25.8331C257.687 25.4529 257.178 25.2627 256.567 25.2627ZM262.021 24.2547H263.295V27.2389H267.303V24.2547H268.577V31.2842H267.303V28.3398H263.295V31.2842H262.021V24.2547ZM274.747 27.6236C275.216 27.7474 275.579 27.9463 275.835 28.2204C276.092 28.4945 276.22 28.835 276.22 29.2417C276.22 29.6573 276.079 30.0287 275.795 30.3558C275.513 30.6741 275.118 30.9261 274.614 31.1118C274.119 31.2887 273.562 31.3771 272.942 31.3771C272.42 31.3771 271.907 31.3107 271.402 31.1781C270.907 31.0367 270.465 30.8377 270.075 30.5813L270.46 29.6131C270.797 29.8253 271.181 29.9932 271.615 30.1171C272.049 30.232 272.487 30.2895 272.929 30.2895C273.531 30.2895 274.008 30.1878 274.362 29.9844C274.725 29.7722 274.906 29.4892 274.906 29.1356C274.906 28.8085 274.76 28.5565 274.468 28.3796C274.186 28.2027 273.783 28.1143 273.26 28.1143H271.973V27.1992H273.167C273.645 27.1992 274.022 27.1151 274.296 26.9472C274.57 26.7792 274.707 26.5493 274.707 26.2575C274.707 25.9392 274.544 25.6916 274.216 25.5147C273.897 25.3379 273.464 25.2495 272.915 25.2495C272.217 25.2495 271.478 25.4307 270.699 25.7933L270.354 24.8118C271.213 24.3786 272.11 24.1619 273.048 24.1619C273.615 24.1619 274.123 24.2415 274.574 24.4006C275.026 24.5598 275.38 24.7853 275.636 25.0771C275.893 25.3688 276.021 25.7004 276.021 26.0718C276.021 26.4166 275.906 26.7261 275.676 27.0002C275.446 27.2743 275.136 27.4821 274.747 27.6236ZM280.69 24.0524C281.664 24.0524 282.407 24.2912 282.92 24.7686C283.442 25.2461 283.703 25.9579 283.703 26.904V31.1482H282.495V30.2198C282.283 30.5469 281.977 30.7989 281.579 30.9758C281.19 31.1438 280.726 31.2278 280.186 31.2278C279.399 31.2278 278.766 31.0376 278.288 30.6575C277.82 30.2773 277.584 29.7776 277.584 29.1587C277.584 28.5398 277.81 28.0446 278.261 27.6733C278.712 27.2931 279.429 27.1029 280.411 27.1029H282.429V26.8509C282.429 26.3027 282.269 25.8827 281.951 25.5909C281.632 25.2992 281.164 25.1533 280.544 25.1533C280.129 25.1533 279.721 25.224 279.323 25.3655C278.925 25.4981 278.589 25.6793 278.314 25.9093L277.783 24.9543C278.147 24.6625 278.58 24.4415 279.084 24.2912C279.588 24.132 280.124 24.0524 280.69 24.0524ZM280.398 30.2463C280.885 30.2463 281.305 30.1402 281.659 29.928C282.013 29.707 282.269 29.3975 282.429 28.9996V28.0181H280.464C279.386 28.0181 278.845 28.3807 278.845 29.1057C278.845 29.4593 278.983 29.7379 279.257 29.9413C279.532 30.1447 279.912 30.2463 280.398 30.2463Z" fill="#ffffff"/>
</svg>
