<svg width="152" height="33" viewBox="0 0 152 33" fill="none" xmlns="http://www.w3.org/2000/svg"><path d="M19.617 26.642a9.377 9.377 0 01-4.112-.942 9.53 9.53 0 01-3.307-2.657 9.724 9.724 0 01-1.851-3.849 9.815 9.815 0 01-.031-4.284 9.731 9.731 0 011.794-3.877 9.537 9.537 0 013.268-2.706 9.374 9.374 0 018.22-.107c.375.177.666.498.809.892.142.394.125.83-.05 1.211a1.563 1.563 0 01-.876.822 1.535 1.535 0 01-1.192-.05 6.293 6.293 0 00-6.115.426 6.447 6.447 0 00-2.16 2.35 6.571 6.571 0 000 6.23 6.447 6.447 0 002.16 2.35 6.292 6.292 0 006.115.426 1.535 1.535 0 011.192-.05c.388.145.703.44.877.822.174.38.191.817.049 1.211a1.575 1.575 0 01-.809.892 9.169 9.169 0 01-3.98.89zm-12.481-.069a1.559 1.559 0 01-1.104-.468 1.61 1.61 0 01-.46-1.122V10.426H1.456A1.554 1.554 0 01.42 9.925a1.604 1.604 0 010-2.169c.27-.295.64-.474 1.036-.502h7.236v17.73c0 .42-.164.823-.455 1.12a1.552 1.552 0 01-1.101.47zm19.717-8.001H23.42a1.554 1.554 0 01-1.036-.502 1.604 1.604 0 01-.42-1.084c0-.403.15-.79.42-1.085a1.55 1.55 0 011.036-.5h3.404a1.541 1.541 0 011.176.423 1.59 1.59 0 01.497 1.162A1.613 1.613 0 0128 18.148a1.558 1.558 0 01-1.175.424h.03zm13.605 8.016a9.394 9.394 0 01-5.28-1.628 9.628 9.628 0 01-3.5-4.335 9.806 9.806 0 01-.541-5.58 9.709 9.709 0 012.6-4.946 9.456 9.456 0 014.867-2.644 9.361 9.361 0 015.49.55 9.539 9.539 0 014.265 3.557 9.772 9.772 0 011.602 5.367 9.755 9.755 0 01-2.788 6.826 9.441 9.441 0 01-6.715 2.833zm0-16.147a6.31 6.31 0 00-3.547 1.094 6.466 6.466 0 00-2.35 2.911 6.587 6.587 0 00-.364 3.749 6.522 6.522 0 001.747 3.322 6.353 6.353 0 003.268 1.775 6.287 6.287 0 003.688-.37 6.407 6.407 0 002.865-2.389 6.563 6.563 0 001.076-3.604c0-1.72-.673-3.37-1.87-4.587a6.331 6.331 0 00-4.513-1.9zM32.518 33a1.535 1.535 0 01-1.103-.466 1.582 1.582 0 01-.453-1.124V16.96a1.605 1.605 0 01.456-1.12 1.554 1.554 0 011.1-.463 1.535 1.535 0 011.1.464 1.584 1.584 0 01.457 1.118V31.41a1.606 1.606 0 01-.454 1.124 1.555 1.555 0 01-1.103.466zm28.077-6.343a9.394 9.394 0 01-5.28-1.628 9.627 9.627 0 01-3.5-4.335 9.806 9.806 0 01-.541-5.581 9.71 9.71 0 012.6-4.946 9.457 9.457 0 014.867-2.643 9.361 9.361 0 015.49.55 9.538 9.538 0 014.266 3.557 9.772 9.772 0 011.601 5.366 9.79 9.79 0 01-.721 3.698 9.662 9.662 0 01-2.06 3.135 9.485 9.485 0 01-3.084 2.094 9.362 9.362 0 01-3.638.733zm0-16.14a6.31 6.31 0 00-3.547 1.094 6.465 6.465 0 00-2.351 2.913 6.586 6.586 0 00-.362 3.75 6.52 6.52 0 001.749 3.321 6.35 6.35 0 003.27 1.774c1.239.25 2.522.12 3.688-.372a6.407 6.407 0 002.864-2.393 6.564 6.564 0 001.072-3.607 6.57 6.57 0 00-.486-2.481 6.488 6.488 0 00-1.384-2.103 6.371 6.371 0 00-2.071-1.405 6.287 6.287 0 00-2.442-.49zm7.94 16.14a1.54 1.54 0 01-1.101-.464 1.595 1.595 0 01-.456-1.118v-8.002a1.614 1.614 0 01.416-1.194 1.565 1.565 0 011.144-.505 1.542 1.542 0 011.143.505 1.594 1.594 0 01.417 1.194v7.994a1.606 1.606 0 01-.458 1.122 1.554 1.554 0 01-1.106.46v.008zm12.197 0a9.394 9.394 0 01-5.28-1.628 9.627 9.627 0 01-3.5-4.335 9.806 9.806 0 01-.541-5.581 9.71 9.71 0 012.6-4.946 9.457 9.457 0 014.867-2.643 9.36 9.36 0 015.49.55 9.538 9.538 0 014.266 3.557 9.773 9.773 0 011.601 5.366 9.74 9.74 0 01-2.783 6.83 9.426 9.426 0 01-6.72 2.83zm0-16.14a6.31 6.31 0 00-3.547 1.094 6.466 6.466 0 00-2.351 2.913 6.586 6.586 0 00-.362 3.75 6.521 6.521 0 001.749 3.321 6.35 6.35 0 003.27 1.774c1.239.25 2.522.12 3.689-.372a6.407 6.407 0 002.863-2.393 6.565 6.565 0 001.072-3.607 6.57 6.57 0 00-.486-2.481 6.487 6.487 0 00-1.384-2.103 6.373 6.373 0 00-2.071-1.405 6.286 6.286 0 00-2.442-.49zm-7.925 22.468c-.415 0-.813-.168-1.106-.466a1.603 1.603 0 01-.458-1.124v-14.45a1.6 1.6 0 01.493-1.053 1.55 1.55 0 011.067-.428c.396 0 .778.153 1.067.428.29.274.466.65.493 1.052v14.451a1.605 1.605 0 01-.453 1.124 1.557 1.557 0 01-1.103.466zm48.288-6.343a9.378 9.378 0 01-4.112-.942 9.533 9.533 0 01-3.307-2.657 9.723 9.723 0 01-1.851-3.849 9.8 9.8 0 01-.031-4.284 9.717 9.717 0 011.795-3.877 9.54 9.54 0 013.267-2.706 9.372 9.372 0 018.22-.107 1.562 1.562 0 01.819.88 1.6 1.6 0 01-.385 1.716 1.548 1.548 0 01-1.113.432 1.538 1.538 0 01-.593-.137h-.037a6.12 6.12 0 00-2.672-.594 6.298 6.298 0 00-2.761.633 6.397 6.397 0 00-2.22 1.784 6.526 6.526 0 00-1.243 2.585 6.601 6.601 0 00-.022 2.876A6.541 6.541 0 00116.054 21a6.41 6.41 0 002.193 1.818 6.3 6.3 0 005.52.075 1.537 1.537 0 011.192-.065c.39.14.709.431.888.81.179.38.202.815.064 1.212a1.575 1.575 0 01-.797.903h-.038a9.23 9.23 0 01-3.981.89zm-20.204 0a9.441 9.441 0 01-6.716-2.834 9.755 9.755 0 01-2.787-6.826 1.6 1.6 0 01.493-1.052 1.55 1.55 0 011.067-.428c.396 0 .777.153 1.067.428.29.275.466.65.493 1.052 0 1.72.672 3.371 1.87 4.588a6.331 6.331 0 004.513 1.9 6.334 6.334 0 004.514-1.9 6.542 6.542 0 001.869-4.588 1.6 1.6 0 01.493-1.052 1.548 1.548 0 012.134 0c.29.275.466.65.494 1.052a9.757 9.757 0 01-2.788 6.826 9.444 9.444 0 01-6.716 2.834zm-7.94-8.146c-.413 0-.81-.167-1.103-.463a1.603 1.603 0 01-.46-1.12v-8a1.6 1.6 0 01.493-1.053 1.55 1.55 0 012.134 0c.29.275.466.65.493 1.052v8.002c0 .42-.164.822-.456 1.118a1.544 1.544 0 01-1.1.464zm15.88 5.263c-.413 0-.809-.167-1.101-.463a1.595 1.595 0 01-.456-1.12V8.7a1.606 1.606 0 01.417-1.194A1.558 1.558 0 01108.834 7a1.544 1.544 0 011.144.505 1.623 1.623 0 01.417 1.194v13.478c-.002.42-.168.823-.461 1.12-.293.296-.69.462-1.103.462zm-7.94 8.07a1.554 1.554 0 01-1.035-.502 1.603 1.603 0 01-.42-1.084c0-.403.15-.79.42-1.085.27-.294.64-.473 1.035-.501a6.34 6.34 0 004.509-1.9 6.551 6.551 0 001.874-4.58 1.606 1.606 0 01.417-1.194 1.558 1.558 0 011.143-.506 1.546 1.546 0 011.144.506 1.624 1.624 0 01.417 1.194 9.741 9.741 0 01-2.787 6.825 9.426 9.426 0 01-6.717 2.827z" fill="url(#paint0_linear_144_3120)"/><path d="M137.657 17.575s.994-1.407 1.847-2.838a28.725 28.725 0 002.091-3.99A3.93 3.93 0 00141.892 9l-.861.063c-5.191.514-10.479 1.644-15.277 5.8A20.677 20.677 0 00121 20.397a45.52 45.52 0 013.708-3.264c3.062-2.264 6.66-3.562 10.383-3.746a31.683 31.683 0 00-2.143 3.54 17.043 17.043 0 00-1.803 4.252l6.512-3.604zm-2.314-4.118s-.994 1.407-1.847 2.845a28.762 28.762 0 00-2.091 3.951 4.001 4.001 0 00-.297 1.747s.319 0 .861-.071c5.191-.514 10.479-1.644 15.277-5.8 3.515-3.043 4.754-5.533 4.754-5.533a47.124 47.124 0 01-3.708 3.264c-3.061 2.265-6.66 3.561-10.383 3.738a31.568 31.568 0 002.143-3.532 17.348 17.348 0 001.81-4.26l-6.519 3.651z" fill="url(#paint1_linear_144_3120)"/><path d="M136.999 3.902a4.004 4.004 0 01-4.719 4.032 4 4 0 114.719-4.032zm-7.317 0a3.313 3.313 0 002.047 3.065 3.319 3.319 0 004.523-2.417 3.318 3.318 0 10-6.57-.648zm3.219-2.204c.898 0 1.951.136 1.951 1.287a.974.974 0 01-.78 1.035c.546.214.702.546.722 1.463-.021.209.02.419.117.605h-.995a1.468 1.468 0 010-.605c0-.878-.176-1.054-1.015-1.054h-.488v1.659h-.975v-4.39h1.463zm0 1.95c.703 0 .995-.175.995-.604 0-.43-.292-.585-.995-.585h-.546v1.19h.546z" fill="#0D6EC9"/><defs><linearGradient id="paint0_linear_144_3120" x1="63" y1="7" x2="63" y2="33" gradientUnits="userSpaceOnUse"><stop stop-color="#0D6EC9"/><stop offset=".868" stop-color="#0653AA"/></linearGradient><linearGradient id="paint1_linear_144_3120" x1="121" y1="20.064" x2="152.41" y2="11.993" gradientUnits="userSpaceOnUse"><stop stop-color="#F05310"/><stop offset="1" stop-color="#FFB906"/></linearGradient></defs></svg>